<svg xmlns="http://www.w3.org/2000/svg" version="1.1" xmlns:xlink="http://www.w3.org/1999/xlink" xmlns:svgjs="http://svgjs.dev/svgjs" width="2000" height="1252" viewBox="0 0 2000 1252"><g transform="matrix(1,0,0,1,-1.2121212121212466,-2.01935483870966)"><svg viewBox="0 0 396 248" data-background-color="#ffffff" preserveAspectRatio="xMidYMid meet" height="1252" width="2000" xmlns="http://www.w3.org/2000/svg" xmlns:xlink="http://www.w3.org/1999/xlink"><g id="tight-bounds" transform="matrix(1,0,0,1,0.2400000000000091,0.4000000000000057)"><svg viewBox="0 0 395.52 247.2" height="247.2" width="395.52"><g><svg></svg></g><g><svg viewBox="0 0 395.52 247.2" height="247.2" width="395.52"><g transform="matrix(1,0,0,1,144.27998661087867,47.215199999999996)"><svg viewBox="0 0 106.96002677824266 152.7696" height="152.7696" width="106.96002677824266"><g><svg viewBox="0 0 106.96002677824266 152.7696" height="152.7696" width="106.96002677824266"><g><svg viewBox="0 0 106.96002677824269 152.76960000000003" height="152.7696" width="106.96002677824266"><g><svg viewBox="0 0 106.96002677824269 152.76960000000003" height="152.76960000000003" width="106.96002677824269"><g id="textblocktransform"><svg viewBox="0 0 106.96002677824269 152.76960000000003" height="152.76960000000003" width="106.96002677824269" id="textblock"><g><svg viewBox="0 0 106.96002677824269 152.76960000000003" height="152.76960000000003" width="106.96002677824269"><g transform="matrix(1,0,0,1,0,0)"><svg width="106.96002677824269" viewBox="3.25 -35.01 24.51 35.01" height="152.76960000000003" data-palette-color="#6936f5"><path d="M27.76-7.01L27.76 0 3.25 0 3.25-35.01 10.25-35.01 10.25-7.01 27.76-7.01Z" opacity="1" transform="matrix(1,0,0,1,0,0)" fill="#6936f5" class="wordmark-text-0" data-fill-palette-color="primary" id="text-0"></path></svg></g></svg></g></svg></g></svg></g></svg></g></svg></g></svg></g><path d="M326.581 41.215L326.581 0 79.381 0 79.381 247.2 326.581 247.2 326.581 205.985 312.804 205.985 312.804 233.423 93.158 233.423 93.158 13.777 312.804 13.777 312.804 41.215Z" fill="#6936f5" stroke="transparent" data-fill-palette-color="tertiary"></path></svg></g><defs></defs></svg><rect width="395.52" height="247.2" fill="none" stroke="none" visibility="hidden"></rect></g></svg></g></svg>