<svg xmlns="http://www.w3.org/2000/svg" version="1.1" xmlns:xlink="http://www.w3.org/1999/xlink" xmlns:svgjs="http://svgjs.dev/svgjs" width="2000" height="2000" viewBox="0 0 2000 2000"><g transform="matrix(1,0,0,1,0,0)"><svg viewBox="0 0 280 280" data-background-color="#051726" preserveAspectRatio="xMidYMid meet" height="2000" width="2000" xmlns="http://www.w3.org/2000/svg" xmlns:xlink="http://www.w3.org/1999/xlink"><g id="tight-bounds" transform="matrix(1,0,0,1,0,0)"><svg viewBox="0 0 280 280" height="280" width="280"><g><svg viewBox="0 0 280 280" height="280" width="280"><g><svg viewBox="0 0 280 280" height="280" width="280"><g id="textblocktransform"><svg viewBox="0 0 280 280" height="280" width="280" id="textblock"><g><svg viewBox="0 0 280 280" height="280" width="280"><g transform="matrix(1,0,0,1,90.50252531694167,90.50252531694167)"><svg viewBox="0 0 98.99494936611666 98.99494936611666" height="98.99494936611666" width="98.99494936611666"><g id="icon-0"><circle r="49" cx="49.49747468305833" cy="49.49747468305833" fill="#81ffd9" data-fill-palette-color="accent"></circle></g></svg></g><g id="text-0"><path d="M32.517 88.279l-5.105 15.42-27.223-9.012 1.285-3.879 23.577 7.805 3.82-11.541z" fill="#ffffff" data-fill-palette-color="primary"></path><path d="M93.919 31.239v0c-1.802 0.821-3.559 1.115-5.27 0.882-1.706-0.236-3.276-0.957-4.712-2.164-1.432-1.216-2.627-2.877-3.587-4.984v0c-0.962-2.113-1.431-4.105-1.406-5.977 0.028-1.881 0.515-3.539 1.459-4.974 0.948-1.445 2.322-2.577 4.124-3.399v0c1.827-0.832 3.59-1.129 5.289-0.89 1.697 0.233 3.261 0.957 4.693 2.173 1.429 1.21 2.625 2.871 3.587 4.983v0c0.96 2.106 1.428 4.099 1.406 5.977-0.025 1.872-0.505 3.528-1.44 4.967-0.935 1.439-2.316 2.574-4.143 3.406zM92.386 27.875v0c1.678-0.764 2.705-1.968 3.082-3.61 0.383-1.645 0.076-3.564-0.923-5.758v0c-1.002-2.2-2.25-3.694-3.743-4.485-1.487-0.793-3.069-0.808-4.746-0.043v0c-1.671 0.761-2.699 1.965-3.083 3.61-0.377 1.642-0.065 3.563 0.938 5.762v0c0.999 2.193 2.242 3.687 3.729 4.48 1.493 0.79 3.075 0.805 4.746 0.044z" fill="#ffffff" data-fill-palette-color="primary"></path><path d="M182.664 29.183l-3.668-1.447 7.895-20.006 3.668 1.447-0.591 1.496 1.001 0.395c0.761-0.441 1.612-0.681 2.552-0.721 0.941-0.04 1.89 0.129 2.85 0.507v0c1.397 0.551 2.484 1.34 3.261 2.366 0.777 1.026 1.231 2.218 1.363 3.577 0.129 1.365-0.108 2.813-0.712 4.343v0l-5.121 12.976-3.667-1.448 4.725-11.975c0.657-1.664 0.783-3.071 0.378-4.222-0.405-1.151-1.331-2.012-2.779-2.583v0c-1.442-0.569-2.71-0.574-3.803-0.014-1.094 0.559-1.97 1.671-2.627 3.334v0z" fill="#ffffff" data-fill-palette-color="primary"></path><path d="M274.055 98.884l-19.316 7.69c-1.599 0.636-3.127 0.841-4.584 0.612-1.451-0.231-2.759-0.867-3.925-1.91-1.158-1.045-2.1-2.478-2.824-4.299v0c-0.672-1.687-0.999-3.266-0.982-4.735 0.015-1.476 0.363-2.772 1.043-3.888 0.671-1.12 1.648-1.971 2.929-2.555v0l1.391 3.492c-0.855 0.752-1.371 1.678-1.551 2.778-0.179 1.1-0.013 2.294 0.5 3.582v0c0.636 1.599 1.547 2.676 2.731 3.234 1.185 0.557 2.535 0.534 4.051-0.069v0l2.132-0.849-0.398-0.999c-0.824-0.186-1.591-0.627-2.301-1.322-0.716-0.692-1.269-1.527-1.658-2.503v0c-0.644-1.618-0.811-3.182-0.502-4.695 0.316-1.515 1.077-2.887 2.285-4.117 1.21-1.224 2.802-2.229 4.775-3.015v0c2.024-0.806 3.899-1.181 5.625-1.126 1.736 0.059 3.242 0.528 4.518 1.409 1.277 0.881 2.237 2.13 2.881 3.748v0c0.399 1.002 0.567 2.005 0.503 3.007-0.064 1.003-0.345 1.846-0.845 2.53v0l0.398 0.999 1.665-0.663zM259.294 88.942v0c-2.017 0.803-3.414 1.881-4.191 3.234-0.771 1.35-0.838 2.825-0.201 4.423v0c0.644 1.618 1.71 2.652 3.197 3.103 1.494 0.449 3.25 0.272 5.267-0.531v0c2.024-0.806 3.421-1.884 4.191-3.234 0.777-1.353 0.843-2.838 0.2-4.456v0c-0.636-1.599-1.702-2.622-3.196-3.071-1.488-0.451-3.243-0.274-5.267 0.532z" fill="#ffffff" data-fill-palette-color="primary"></path><path d="M12.1 198.48l-5.105-15.42 27.223-9.013 1.285 3.88-23.578 7.805 3.821 11.541z" fill="#ffffff" data-fill-palette-color="primary"></path><path d="M84.527 269.377v0c-1.802-0.821-3.177-1.954-4.124-3.399-0.941-1.442-1.428-3.1-1.459-4.974-0.022-1.878 0.447-3.871 1.406-5.977v0c0.962-2.113 2.158-3.774 3.587-4.984 1.438-1.213 3.008-1.934 4.712-2.164 1.712-0.233 3.469 0.061 5.27 0.882v0c1.827 0.832 3.208 1.968 4.143 3.406 0.938 1.433 1.418 3.088 1.44 4.967 0.025 1.872-0.444 3.864-1.406 5.977v0c-0.96 2.106-2.155 3.767-3.587 4.983-1.429 1.21-2.993 1.934-4.693 2.173-1.699 0.239-3.462-0.058-5.289-0.89zM86.06 266.012v0c1.678 0.764 3.26 0.75 4.746-0.043 1.493-0.79 2.739-2.282 3.739-4.476v0c1.002-2.2 1.311-4.122 0.928-5.767-0.377-1.642-1.405-2.846-3.083-3.61v0c-1.671-0.761-3.254-0.747-4.746 0.043-1.487 0.793-2.731 2.29-3.733 4.49v0c-0.999 2.193-1.31 4.111-0.933 5.753 0.383 1.645 1.411 2.849 3.082 3.61z" fill="#ffffff" data-fill-palette-color="primary"></path><path d="M190.559 270.823l-3.668 1.447-7.895-20.006 3.668-1.447 0.59 1.496 1-0.395c0.255-0.842 0.712-1.599 1.372-2.27 0.66-0.671 1.469-1.196 2.429-1.575v0c1.397-0.551 2.73-0.718 3.998-0.499 1.268 0.219 2.414 0.779 3.438 1.682 1.027 0.909 1.842 2.128 2.446 3.659v0l5.12 12.975-3.667 1.448-4.726-11.975c-0.657-1.664-1.526-2.778-2.607-3.342-1.081-0.564-2.346-0.56-3.794 0.011v0c-1.442 0.569-2.371 1.431-2.789 2.586-0.417 1.156-0.298 2.565 0.359 4.23v0z" fill="#ffffff" data-fill-palette-color="primary"></path><path d="M254.073 173.161l19.316 7.69c1.599 0.636 2.849 1.538 3.751 2.706 0.896 1.165 1.408 2.526 1.537 4.084 0.123 1.555-0.178 3.244-0.903 5.065v0c-0.672 1.687-1.519 3.059-2.541 4.113-1.025 1.062-2.168 1.764-3.43 2.108-1.257 0.352-2.552 0.3-3.883-0.158v0l1.39-3.492c1.137 0.041 2.149-0.276 3.036-0.952 0.886-0.676 1.586-1.658 2.098-2.945v0c0.636-1.599 0.716-3.007 0.239-4.227-0.477-1.219-1.474-2.13-2.991-2.733v0l-2.131-0.849-0.398 0.999c0.47 0.702 0.725 1.549 0.763 2.542 0.045 0.995-0.127 1.981-0.516 2.958v0c-0.644 1.618-1.598 2.869-2.862 3.755-1.27 0.883-2.767 1.357-4.49 1.42-1.72 0.057-3.567-0.307-5.54-1.092v0c-2.024-0.806-3.644-1.822-4.86-3.048-1.22-1.235-1.992-2.612-2.313-4.129-0.322-1.517-0.161-3.084 0.483-4.702v0c0.399-1.002 0.966-1.846 1.701-2.53 0.736-0.685 1.52-1.104 2.353-1.257v0l0.398-0.999-1.666-0.663zM257.962 190.528v0c2.017 0.803 3.773 0.98 5.267 0.531 1.488-0.451 2.55-1.476 3.186-3.074v0c0.644-1.618 0.581-3.102-0.19-4.452-0.777-1.353-2.174-2.431-4.191-3.234v0c-2.024-0.806-3.779-0.983-5.267-0.531-1.494 0.449-2.563 1.482-3.207 3.099v0c-0.636 1.599-0.566 3.074 0.211 4.427 0.771 1.35 2.168 2.428 4.191 3.234z" fill="#ffffff" data-fill-palette-color="primary"></path><path d="M0 140c0-6.05 4.904-10.954 10.954-10.954 6.05 0 10.954 4.904 10.955 10.954 0 6.05-4.904 10.954-10.955 10.954-6.05 0-10.954-4.904-10.954-10.954z" fill="#ffffff" data-fill-palette-color="primary"></path><path d="M258.091 140c0-6.05 4.904-10.954 10.955-10.954 6.05 0 10.954 4.904 10.954 10.954 0 6.05-4.904 10.954-10.954 10.954-6.05 0-10.954-4.904-10.955-10.954z" fill="#ffffff" data-fill-palette-color="primary"></path></g><g id="text-1"></g></svg></g></svg></g></svg></g><g></g></svg></g><defs></defs></svg><rect width="280" height="280" fill="none" stroke="none" visibility="hidden"></rect></g></svg></g></svg>