<svg xmlns="http://www.w3.org/2000/svg" version="1.1" xmlns:xlink="http://www.w3.org/1999/xlink" xmlns:svgjs="http://svgjs.dev/svgjs" width="2000" height="939" viewBox="0 0 2000 939"><g transform="matrix(1,0,0,1,-1.2121212121212466,-2.431236778008156)"><svg viewBox="0 0 396 186" data-background-color="#191552" preserveAspectRatio="xMidYMid meet" height="939" width="2000" xmlns="http://www.w3.org/2000/svg" xmlns:xlink="http://www.w3.org/1999/xlink"><g id="tight-bounds" transform="matrix(1,0,0,1,0.2400000000000091,0.48158683781630884)"><svg viewBox="0 0 395.52 185.03682632436738" height="185.03682632436738" width="395.52"><g><svg viewBox="0 0 395.52 185.03682632436738" height="185.03682632436738" width="395.52"><g transform="matrix(1,0,0,1,0,95.2671549264712)"><svg viewBox="0 0 395.52 89.76967139789616" height="89.76967139789616" width="395.52"><g id="textblocktransform"><svg viewBox="0 0 395.52 89.76967139789616" height="89.76967139789616" width="395.52" id="textblock"><g><svg viewBox="0 0 395.52 89.76967139789616" height="89.76967139789616" width="395.52"><g transform="matrix(1,0,0,1,0,0)"><svg width="395.52" viewBox="1.013069999999999 -20.085899999999995 207.20346481395515 47.02818" height="89.76967139789616" data-palette-color="url(#27d672e7-9c86-46c4-8bcb-5f1f670a40db)"></svg></g></svg></g></svg></g></svg></g><g transform="matrix(1,0,0,1,171.71842571113828,0)"><svg viewBox="0 0 52.08314857772342 89.76967139789616" height="89.76967139789616" width="52.08314857772342"><g><svg xmlns="http://www.w3.org/2000/svg" xmlns:xlink="http://www.w3.org/1999/xlink" version="1.1" x="0" y="0" viewBox="21.679106830508616 1 56.85827385947762 98" enable-background="new 0 0 100 100" xml:space="preserve" height="89.76967139789616" width="52.08314857772342" class="icon-icon-0" data-fill-palette-color="accent" id="icon-0"></svg></g></svg></g><g></g></svg></g><defs></defs><mask id="d16ed1b8-a6e4-4767-b459-99be8636f50e"><g id="SvgjsG2828"><svg viewBox="0 0 395.52 185.03682632436738" height="185.03682632436738" width="395.52"><g><svg viewBox="0 0 395.52 185.03682632436738" height="185.03682632436738" width="395.52"><g transform="matrix(1,0,0,1,0,95.2671549264712)"><svg viewBox="0 0 395.52 89.76967139789616" height="89.76967139789616" width="395.52"><g id="SvgjsG2827"><svg viewBox="0 0 395.52 89.76967139789616" height="89.76967139789616" width="395.52" id="SvgjsSvg2826"><g><svg viewBox="0 0 395.52 89.76967139789616" height="89.76967139789616" width="395.52"><g transform="matrix(1,0,0,1,0,0)"><svg width="395.52" viewBox="1.013069999999999 -20.085899999999995 207.20346481395515 47.02818" height="89.76967139789616" data-palette-color="url(#27d672e7-9c86-46c4-8bcb-5f1f670a40db)"><path d="M23.811 18.741l-22.798-5.534 8.082-33.293 4.227 1.026-7.171 29.542 18.571 4.508zM42.096 21.826v0c-2.382-0.386-4.464-1.212-6.243-2.48-1.788-1.262-3.253-2.826-4.397-4.693-1.151-1.861-1.941-3.88-2.372-6.058-0.432-2.17-0.473-4.335-0.124-6.493v0c0.366-2.257 1.119-4.344 2.26-6.259 1.141-1.916 2.565-3.559 4.273-4.93 1.701-1.372 3.598-2.369 5.691-2.989 2.086-0.621 4.274-0.746 6.564-0.376v0c2.382 0.386 4.461 1.226 6.238 2.52 1.775 1.3 3.23 2.89 4.364 4.769 1.128 1.878 1.909 3.892 2.344 6.042 0.434 2.157 0.479 4.302 0.133 6.434v0c-0.364 2.251-1.111 4.338-2.24 6.262-1.128 1.918-2.542 3.563-4.243 4.936-1.707 1.365-3.602 2.351-5.686 2.959-2.084 0.608-4.271 0.727-6.562 0.356zM33.294 2.804v0c-0.277 1.711-0.266 3.415 0.033 5.111 0.293 1.695 0.849 3.244 1.669 4.646 0.813 1.401 1.875 2.583 3.184 3.545 1.31 0.962 2.84 1.584 4.591 1.868v0c1.81 0.293 3.49 0.174 5.042-0.359 1.551-0.526 2.929-1.342 4.135-2.45 1.206-1.108 2.201-2.416 2.985-3.924 0.783-1.501 1.306-3.061 1.569-4.679v0c0.278-1.718 0.266-3.415-0.037-5.091-0.296-1.676-0.859-3.225-1.689-4.65-0.83-1.424-1.894-2.606-3.194-3.546-1.299-0.946-2.804-1.558-4.514-1.836v0c-1.81-0.293-3.489-0.18-5.039 0.339-1.555 0.511-2.936 1.321-4.142 2.43-1.206 1.108-2.206 2.405-3 3.89-0.794 1.485-1.325 3.054-1.593 4.706zM90.09 26.642l-18.602-27.738-1.988 26.174-4.338-0.329 2.595-34.162 3.659 0.278 18.852 28.289 2.025-26.663 4.338 0.33-2.592 34.121zM117.169 26.849v0c-2.253 0.038-4.361-0.416-6.324-1.363-1.963-0.947-3.682-2.238-5.156-3.873-1.475-1.629-2.633-3.476-3.475-5.542-0.842-2.059-1.282-4.199-1.319-6.418v0c-0.039-2.313 0.327-4.516 1.098-6.61 0.771-2.087 1.857-3.945 3.256-5.576 1.406-1.631 3.074-2.923 5.005-3.875 1.931-0.946 4.039-1.439 6.325-1.478v0c3.313-0.056 6.058 0.587 8.234 1.93 2.177 1.35 3.83 3.125 4.962 5.327v0l-3.291 2.366c-1.027-1.976-2.419-3.433-4.175-4.37-1.75-0.937-3.671-1.388-5.763-1.352v0c-1.74 0.03-3.31 0.426-4.711 1.19-1.401 0.764-2.597 1.791-3.588 3.082-0.992 1.29-1.74 2.743-2.246 4.358-0.506 1.615-0.744 3.293-0.715 5.033v0c0.031 1.833 0.36 3.558 0.988 5.174 0.621 1.61 1.488 3.025 2.603 4.247 1.114 1.221 2.401 2.173 3.859 2.855 1.458 0.682 3.024 1.009 4.697 0.98v0c1.966-0.033 3.824-0.562 5.574-1.585 1.756-1.03 3.403-2.588 4.941-4.675v0l0.076 4.49c-3.024 3.719-6.642 5.614-10.855 5.685zM127.584 26.432l-0.235-13.798-7.379 0.125-0.055-3.279 11.048-0.188 0.29 17.078zM141.737-8.817l4.552-0.595 14.977 27.098 7.462-30.03 4.551-0.594-9.344 35.772-3.927 0.513zM195.572 17.497v0c-2.361 0.498-4.601 0.477-6.718-0.063-2.123-0.533-4.053-1.464-5.792-2.794-1.744-1.322-3.209-2.92-4.395-4.796-1.185-1.869-2.003-3.873-2.455-6.012v0c-0.472-2.237-0.521-4.455-0.147-6.653 0.374-2.198 1.111-4.244 2.209-6.139 1.093-1.893 2.503-3.506 4.232-4.839 1.722-1.331 3.718-2.236 5.988-2.715v0c2.361-0.498 4.603-0.464 6.727 0.103 2.124 0.574 4.054 1.532 5.789 2.876 1.728 1.345 3.183 2.943 4.364 4.792 1.182 1.856 1.996 3.84 2.442 5.954v0c0.471 2.231 0.527 4.447 0.167 6.649-0.361 2.195-1.088 4.239-2.18 6.132-1.1 1.888-2.513 3.491-4.238 4.81-1.725 1.318-3.722 2.217-5.993 2.695zM180.507 2.925v0c0.358 1.696 0.982 3.281 1.873 4.756 0.884 1.476 1.961 2.72 3.231 3.733 1.263 1.014 2.679 1.734 4.247 2.159 1.568 0.425 3.22 0.455 4.955 0.088v0c1.794-0.379 3.319-1.096 4.575-2.151 1.257-1.049 2.249-2.308 2.974-3.776 0.726-1.468 1.183-3.047 1.371-4.735 0.19-1.682 0.116-3.326-0.223-4.93v0c-0.359-1.702-0.982-3.281-1.868-4.736-0.88-1.456-1.963-2.699-3.251-3.729-1.287-1.03-2.706-1.749-4.257-2.158-1.553-0.415-3.177-0.443-4.873-0.085v0c-1.794 0.379-3.32 1.089-4.578 2.132-1.266 1.037-2.262 2.29-2.988 3.758-0.726 1.468-1.191 3.038-1.397 4.71-0.206 1.672-0.136 3.326 0.209 4.964z" opacity="1" transform="matrix(1,0,0,1,0,0)" fill="white" class="wordmark-text-0" id="SvgjsPath2825"></path></svg></g></svg></g></svg></g></svg></g><g transform="matrix(1,0,0,1,171.71842571113828,0)"><svg viewBox="0 0 52.08314857772342 89.76967139789616" height="89.76967139789616" width="52.08314857772342"><g><svg xmlns="http://www.w3.org/2000/svg" xmlns:xlink="http://www.w3.org/1999/xlink" version="1.1" x="0" y="0" viewBox="21.679106830508616 1 56.85827385947762 98" enable-background="new 0 0 100 100" xml:space="preserve" height="89.76967139789616" width="52.08314857772342" class="icon-icon-0" data-fill-palette-color="accent" id="SvgjsSvg2824"><g fill="black"><path fill-rule="evenodd" clip-rule="evenodd" d="M30.545 28.822C29.38 36.039 30.875 43.672 37.045 47.863 30.758 19.81 45.756 8.664 59.646 1 43.466 24.046 76.542 24.644 78.423 51.13 80.028 73.71 64.507 91.317 46.639 99 46.845 76.175 24.089 73.067 21.801 54.397 20.905 47.094 25.062 33.766 30.545 28.822" fill="black"></path></g></svg></g></svg></g><g></g></svg></g><defs><mask></mask></defs></svg><rect width="395.52" height="185.03682632436738" fill="black" stroke="none" visibility="hidden"></rect></g></mask><linearGradient x1="0" x2="1" y1="0.578" y2="0.595" id="27d672e7-9c86-46c4-8bcb-5f1f670a40db"><stop stop-color="#6ee2f5" offset="0"></stop><stop stop-color="#6454f0" offset="1"></stop></linearGradient><rect width="395.52" height="185.03682632436738" fill="url(#27d672e7-9c86-46c4-8bcb-5f1f670a40db)" mask="url(#d16ed1b8-a6e4-4767-b459-99be8636f50e)" data-fill-palette-color="primary"></rect><mask id="ef2b0595-8bb9-466d-a4fd-126b09c26835"><g id="SvgjsG2837"><svg viewBox="0 0 395.52 185.03682632436738" height="185.03682632436738" width="395.52"><g><svg viewBox="0 0 395.52 185.03682632436738" height="185.03682632436738" width="395.52"><g transform="matrix(1,0,0,1,0,95.2671549264712)"><svg viewBox="0 0 395.52 89.76967139789616" height="89.76967139789616" width="395.52"><g id="SvgjsG2836"><svg viewBox="0 0 395.52 89.76967139789616" height="89.76967139789616" width="395.52" id="SvgjsSvg2835"><g><svg viewBox="0 0 395.52 89.76967139789616" height="89.76967139789616" width="395.52"><g transform="matrix(1,0,0,1,0,0)"><svg width="395.52" viewBox="1.013069999999999 -20.085899999999995 207.20346481395515 47.02818" height="89.76967139789616" data-palette-color="url(#27d672e7-9c86-46c4-8bcb-5f1f670a40db)"></svg></g></svg></g></svg></g></svg></g><g transform="matrix(1,0,0,1,171.71842571113828,0)"><svg viewBox="0 0 52.08314857772342 89.76967139789616" height="89.76967139789616" width="52.08314857772342"><g><svg xmlns="http://www.w3.org/2000/svg" xmlns:xlink="http://www.w3.org/1999/xlink" version="1.1" x="0" y="0" viewBox="21.679106830508616 1 56.85827385947762 98" enable-background="new 0 0 100 100" xml:space="preserve" height="89.76967139789616" width="52.08314857772342" class="icon-icon-0" data-fill-palette-color="accent" id="SvgjsSvg2834"><g fill="white"><path fill-rule="evenodd" clip-rule="evenodd" d="M30.545 28.822C29.38 36.039 30.875 43.672 37.045 47.863 30.758 19.81 45.756 8.664 59.646 1 43.466 24.046 76.542 24.644 78.423 51.13 80.028 73.71 64.507 91.317 46.639 99 46.845 76.175 24.089 73.067 21.801 54.397 20.905 47.094 25.062 33.766 30.545 28.822" fill="white"></path></g></svg></g></svg></g><g></g></svg></g><defs><mask></mask></defs><mask><g id="SvgjsG2833"><svg viewBox="0 0 395.52 185.03682632436738" height="185.03682632436738" width="395.52"><g><svg viewBox="0 0 395.52 185.03682632436738" height="185.03682632436738" width="395.52"><g transform="matrix(1,0,0,1,0,95.2671549264712)"><svg viewBox="0 0 395.52 89.76967139789616" height="89.76967139789616" width="395.52"><g id="SvgjsG2832"><svg viewBox="0 0 395.52 89.76967139789616" height="89.76967139789616" width="395.52" id="SvgjsSvg2831"><g><svg viewBox="0 0 395.52 89.76967139789616" height="89.76967139789616" width="395.52"><g transform="matrix(1,0,0,1,0,0)"><svg width="395.52" viewBox="1.013069999999999 -20.085899999999995 207.20346481395515 47.02818" height="89.76967139789616" data-palette-color="url(#27d672e7-9c86-46c4-8bcb-5f1f670a40db)"><path d="M23.811 18.741l-22.798-5.534 8.082-33.293 4.227 1.026-7.171 29.542 18.571 4.508zM42.096 21.826v0c-2.382-0.386-4.464-1.212-6.243-2.48-1.788-1.262-3.253-2.826-4.397-4.693-1.151-1.861-1.941-3.88-2.372-6.058-0.432-2.17-0.473-4.335-0.124-6.493v0c0.366-2.257 1.119-4.344 2.26-6.259 1.141-1.916 2.565-3.559 4.273-4.93 1.701-1.372 3.598-2.369 5.691-2.989 2.086-0.621 4.274-0.746 6.564-0.376v0c2.382 0.386 4.461 1.226 6.238 2.52 1.775 1.3 3.23 2.89 4.364 4.769 1.128 1.878 1.909 3.892 2.344 6.042 0.434 2.157 0.479 4.302 0.133 6.434v0c-0.364 2.251-1.111 4.338-2.24 6.262-1.128 1.918-2.542 3.563-4.243 4.936-1.707 1.365-3.602 2.351-5.686 2.959-2.084 0.608-4.271 0.727-6.562 0.356zM33.294 2.804v0c-0.277 1.711-0.266 3.415 0.033 5.111 0.293 1.695 0.849 3.244 1.669 4.646 0.813 1.401 1.875 2.583 3.184 3.545 1.31 0.962 2.84 1.584 4.591 1.868v0c1.81 0.293 3.49 0.174 5.042-0.359 1.551-0.526 2.929-1.342 4.135-2.45 1.206-1.108 2.201-2.416 2.985-3.924 0.783-1.501 1.306-3.061 1.569-4.679v0c0.278-1.718 0.266-3.415-0.037-5.091-0.296-1.676-0.859-3.225-1.689-4.65-0.83-1.424-1.894-2.606-3.194-3.546-1.299-0.946-2.804-1.558-4.514-1.836v0c-1.81-0.293-3.489-0.18-5.039 0.339-1.555 0.511-2.936 1.321-4.142 2.43-1.206 1.108-2.206 2.405-3 3.89-0.794 1.485-1.325 3.054-1.593 4.706zM90.09 26.642l-18.602-27.738-1.988 26.174-4.338-0.329 2.595-34.162 3.659 0.278 18.852 28.289 2.025-26.663 4.338 0.33-2.592 34.121zM117.169 26.849v0c-2.253 0.038-4.361-0.416-6.324-1.363-1.963-0.947-3.682-2.238-5.156-3.873-1.475-1.629-2.633-3.476-3.475-5.542-0.842-2.059-1.282-4.199-1.319-6.418v0c-0.039-2.313 0.327-4.516 1.098-6.61 0.771-2.087 1.857-3.945 3.256-5.576 1.406-1.631 3.074-2.923 5.005-3.875 1.931-0.946 4.039-1.439 6.325-1.478v0c3.313-0.056 6.058 0.587 8.234 1.93 2.177 1.35 3.83 3.125 4.962 5.327v0l-3.291 2.366c-1.027-1.976-2.419-3.433-4.175-4.37-1.75-0.937-3.671-1.388-5.763-1.352v0c-1.74 0.03-3.31 0.426-4.711 1.19-1.401 0.764-2.597 1.791-3.588 3.082-0.992 1.29-1.74 2.743-2.246 4.358-0.506 1.615-0.744 3.293-0.715 5.033v0c0.031 1.833 0.36 3.558 0.988 5.174 0.621 1.61 1.488 3.025 2.603 4.247 1.114 1.221 2.401 2.173 3.859 2.855 1.458 0.682 3.024 1.009 4.697 0.98v0c1.966-0.033 3.824-0.562 5.574-1.585 1.756-1.03 3.403-2.588 4.941-4.675v0l0.076 4.49c-3.024 3.719-6.642 5.614-10.855 5.685zM127.584 26.432l-0.235-13.798-7.379 0.125-0.055-3.279 11.048-0.188 0.29 17.078zM141.737-8.817l4.552-0.595 14.977 27.098 7.462-30.03 4.551-0.594-9.344 35.772-3.927 0.513zM195.572 17.497v0c-2.361 0.498-4.601 0.477-6.718-0.063-2.123-0.533-4.053-1.464-5.792-2.794-1.744-1.322-3.209-2.92-4.395-4.796-1.185-1.869-2.003-3.873-2.455-6.012v0c-0.472-2.237-0.521-4.455-0.147-6.653 0.374-2.198 1.111-4.244 2.209-6.139 1.093-1.893 2.503-3.506 4.232-4.839 1.722-1.331 3.718-2.236 5.988-2.715v0c2.361-0.498 4.603-0.464 6.727 0.103 2.124 0.574 4.054 1.532 5.789 2.876 1.728 1.345 3.183 2.943 4.364 4.792 1.182 1.856 1.996 3.84 2.442 5.954v0c0.471 2.231 0.527 4.447 0.167 6.649-0.361 2.195-1.088 4.239-2.18 6.132-1.1 1.888-2.513 3.491-4.238 4.81-1.725 1.318-3.722 2.217-5.993 2.695zM180.507 2.925v0c0.358 1.696 0.982 3.281 1.873 4.756 0.884 1.476 1.961 2.72 3.231 3.733 1.263 1.014 2.679 1.734 4.247 2.159 1.568 0.425 3.22 0.455 4.955 0.088v0c1.794-0.379 3.319-1.096 4.575-2.151 1.257-1.049 2.249-2.308 2.974-3.776 0.726-1.468 1.183-3.047 1.371-4.735 0.19-1.682 0.116-3.326-0.223-4.93v0c-0.359-1.702-0.982-3.281-1.868-4.736-0.88-1.456-1.963-2.699-3.251-3.729-1.287-1.03-2.706-1.749-4.257-2.158-1.553-0.415-3.177-0.443-4.873-0.085v0c-1.794 0.379-3.32 1.089-4.578 2.132-1.266 1.037-2.262 2.29-2.988 3.758-0.726 1.468-1.191 3.038-1.397 4.71-0.206 1.672-0.136 3.326 0.209 4.964z" opacity="1" transform="matrix(1,0,0,1,0,0)" fill="black" class="wordmark-text-0" id="SvgjsPath2830"></path></svg></g></svg></g></svg></g></svg></g><g transform="matrix(1,0,0,1,171.71842571113828,0)"><svg viewBox="0 0 52.08314857772342 89.76967139789616" height="89.76967139789616" width="52.08314857772342"><g><svg xmlns="http://www.w3.org/2000/svg" xmlns:xlink="http://www.w3.org/1999/xlink" version="1.1" x="0" y="0" viewBox="21.679106830508616 1 56.85827385947762 98" enable-background="new 0 0 100 100" xml:space="preserve" height="89.76967139789616" width="52.08314857772342" class="icon-icon-0" data-fill-palette-color="accent" id="SvgjsSvg2829"><g fill="black"><path fill-rule="evenodd" clip-rule="evenodd" d="M30.545 28.822C29.38 36.039 30.875 43.672 37.045 47.863 30.758 19.81 45.756 8.664 59.646 1 43.466 24.046 76.542 24.644 78.423 51.13 80.028 73.71 64.507 91.317 46.639 99 46.845 76.175 24.089 73.067 21.801 54.397 20.905 47.094 25.062 33.766 30.545 28.822" fill="black"></path></g></svg></g></svg></g><g></g></svg></g><defs><mask></mask></defs></svg><rect width="395.52" height="185.03682632436738" fill="black" stroke="none" visibility="hidden"></rect></g></mask></svg><rect width="395.52" height="185.03682632436738" fill="black" stroke="none" visibility="hidden"></rect></g></mask><linearGradient x1="0" x2="1" y1="0.578" y2="0.595" id="52cdff38-0004-4519-a976-7f6ff09fd425"><stop stop-color="#6ee2f5" offset="0"></stop><stop stop-color="#6454f0" offset="1"></stop></linearGradient><rect width="395.52" height="185.03682632436738" fill="url(#52cdff38-0004-4519-a976-7f6ff09fd425)" mask="url(#ef2b0595-8bb9-466d-a4fd-126b09c26835)" data-fill-palette-color="accent"></rect></svg><rect width="395.52" height="185.03682632436738" fill="none" stroke="none" visibility="hidden"></rect></g></svg></g></svg>